<?xml version="1.0" encoding="UTF-8" standalone="no"?>
<!-- Created with Inkscape (http://www.inkscape.org/) -->

<svg
   width="203.2mm"
   height="256.65906mm"
   viewBox="0 0 203.2 256.65906"
   version="1.1"
   id="svg5"
   inkscape:version="1.3 (0e150ed6c4, 2023-07-21)"
   sodipodi:docname="fig_8_perceptron_fg.svg"
   xml:space="preserve"
   inkscape:export-filename="FinalTIFFs\8.tiff"
   inkscape:export-xdpi="300"
   inkscape:export-ydpi="300"
   xmlns:inkscape="http://www.inkscape.org/namespaces/inkscape"
   xmlns:sodipodi="http://sodipodi.sourceforge.net/DTD/sodipodi-0.dtd"
   xmlns:xlink="http://www.w3.org/1999/xlink"
   xmlns="http://www.w3.org/2000/svg"
   xmlns:svg="http://www.w3.org/2000/svg"><sodipodi:namedview
     id="namedview7"
     pagecolor="#ffffff"
     bordercolor="#666666"
     borderopacity="1.0"
     inkscape:pageshadow="2"
     inkscape:pageopacity="0.0"
     inkscape:pagecheckerboard="0"
     inkscape:document-units="mm"
     showgrid="false"
     height="346mm"
     inkscape:zoom="1.4247736"
     inkscape:cx="256.88291"
     inkscape:cy="266.3581"
     inkscape:window-width="1920"
     inkscape:window-height="986"
     inkscape:window-x="1909"
     inkscape:window-y="-11"
     inkscape:window-maximized="1"
     inkscape:current-layer="layer1"
     inkscape:showpageshadow="2"
     inkscape:deskcolor="#d1d1d1" /><defs
     id="defs2"><rect
       x="20.844355"
       y="16.874001"
       width="29.777649"
       height="34.740589"
       id="rect1" /><clipPath
       clipPathUnits="userSpaceOnUse"
       id="clipPath8072"><rect
         style="fill:#008000;stroke:#008000;stroke-width:0.792845;stroke-linejoin:round;paint-order:fill markers stroke"
         id="rect8074"
         width="13.493744"
         height="8.6527376"
         x="194.36243"
         y="85.575478" /></clipPath><clipPath
       id="clip0"><rect
         x="346"
         y="227"
         width="896"
         height="269"
         id="rect391" /></clipPath><clipPath
       id="clip0-8"><rect
         x="346"
         y="209"
         width="967"
         height="287"
         id="rect611" /></clipPath><rect
       x="20.844355"
       y="16.874001"
       width="29.777649"
       height="34.740589"
       id="rect1-7" /><clipPath
       id="clip0-8-7"><rect
         x="346"
         y="209"
         width="967"
         height="287"
         id="rect611-3" /></clipPath><clipPath
       id="clip0-8-8"><rect
         x="346"
         y="209"
         width="967"
         height="287"
         id="rect611-4" /></clipPath><clipPath
       id="clip0-83"><rect
         x="650"
         y="144"
         width="225"
         height="187"
         id="rect1-1" /></clipPath></defs><g
     inkscape:label="Layer 1"
     inkscape:groupmode="layer"
     id="layer1"
     transform="translate(29.447483,-74.776299)"><image
       preserveAspectRatio="none"
       inkscape:svg-dpi="300"
       width="203.2"
       height="203.2"
       xlink:href="..%5C..%5C..%5C..%5C..%5CCode%5CCalcitron1%5CCalc_Plots%5C8.svg"
       id="image1"
       x="-29.447483"
       y="128.23537" /><text
       xml:space="preserve"
       transform="matrix(0.26458333,0,0,0.26458333,-13.501408,77.422144)"
       id="text1"
       style="font-style:normal;font-variant:normal;font-weight:normal;font-stretch:normal;font-size:18.6667px;font-family:Arial, Arial_MSFontService, sans-serif;-inkscape-font-specification:'Arial, Arial_MSFontService, sans-serif, Normal';font-variant-ligatures:normal;font-variant-position:sub;font-variant-caps:normal;font-variant-numeric:normal;font-variant-east-asian:normal;white-space:pre;shape-inside:url(#rect1);display:inline;fill:#000000"><tspan
         x="20.84375"
         y="33.68716"
         id="tspan3">A</tspan></text><text
       xml:space="preserve"
       transform="matrix(0.26458333,0,0,0.26458333,84.178415,78.659028)"
       id="text1-6"
       style="font-style:normal;font-variant:normal;font-weight:normal;font-stretch:normal;font-size:18.6667px;font-family:Arial, Arial_MSFontService, sans-serif;-inkscape-font-specification:'Arial, Arial_MSFontService, sans-serif, Normal';font-variant-ligatures:normal;font-variant-position:sub;font-variant-caps:normal;font-variant-numeric:normal;font-variant-east-asian:normal;white-space:pre;shape-inside:url(#rect1-7);display:inline;fill:#000000"><tspan
         x="20.84375"
         y="33.68716"
         id="tspan4">C</tspan></text><g
       clip-path="url(#clip0-83)"
       transform="matrix(0.26458333,0,0,0.26458333,-81.041232,39.057568)"
       id="g26"><path
         d="m 651,250.5 c 0,-11.322 10.297,-20.5 23,-20.5 12.703,0 23,9.178 23,20.5 0,11.322 -10.297,20.5 -23,20.5 -12.703,0 -23,-9.178 -23,-20.5 z"
         stroke="#000000"
         stroke-width="2"
         stroke-miterlimit="8"
         fill="#ffffff"
         fill-rule="evenodd"
         id="path1" /><text
         font-family="Calibri, Calibri_MSFontService, sans-serif"
         font-weight="700"
         font-size="13px"
         transform="translate(670.461,254)"
         id="text1-9">C</text><path
         d="m 828,250.5 c 0,-11.322 10.297,-20.5 23,-20.5 12.703,0 23,9.178 23,20.5 0,11.322 -10.297,20.5 -23,20.5 -12.703,0 -23,-9.178 -23,-20.5 z"
         stroke="#000000"
         stroke-width="2"
         stroke-miterlimit="8"
         fill="#ffffff"
         fill-rule="evenodd"
         id="path2" /><text
         font-family="Calibri, Calibri_MSFontService, sans-serif"
         font-weight="700"
         font-size="13px"
         transform="translate(847.784,254)"
         id="text2">S</text><path
         d="m 852.972,270.731 -0.539,3.467 -1.634,3.572 -2.556,3.412 -3.384,3.257 -4.139,3.106 -4.832,2.948 -5.465,2.775 -6.037,2.584 -6.547,2.372 -6.995,2.135 -7.381,1.876 -7.719,1.595 -16.087,2.226 -8.305,0.589 -8.357,0.201 -8.356,-0.199 -8.304,-0.58 -16.086,-2.196 -7.718,-1.573 -7.38,-1.85 -6.994,-2.107 -6.547,-2.339 -6.036,-2.548 -5.464,-2.738 -4.832,-2.907 -4.139,-3.064 -3.455,-3.281 -1.62,-2.811 2.599,-1.498 1.512,2.622 -0.267,-0.338 3.23,3.067 -0.141,-0.118 4.008,2.967 -0.119,-0.08 4.721,2.841 -0.102,-0.056 5.369,2.689 -0.088,-0.04 5.952,2.513 -0.079,-0.031 6.471,2.312 -0.072,-0.023 6.924,2.085 -0.067,-0.019 7.313,1.834 -0.065,-0.015 7.637,1.557 -0.096,-0.016 15.987,2.181 -0.098,-0.01 8.221,0.575 -0.069,-0.003 8.286,0.197 h -0.072 l 8.285,-0.2 -0.069,0.004 8.22,-0.583 -0.099,0.01 15.988,-2.212 -0.098,0.017 7.637,-1.578 -0.066,0.015 7.314,-1.859 -0.069,0.02 6.925,-2.114 -0.073,0.024 6.471,-2.344 -0.08,0.031 5.952,-2.547 -0.089,0.041 5.369,-2.726 -0.102,0.056 4.721,-2.879 -0.119,0.08 4.008,-3.007 -0.14,0.119 3.23,-3.109 -0.16,0.181 2.387,-3.186 -0.164,0.276 1.48,-3.237 -0.118,0.393 0.508,-3.263 z m -179.195,10.278 0.723,-10.037 7.595,6.6 z"
         fill="#ff0000"
         id="path3" /><text
         font-family="'Cambria Math', 'Cambria Math_MSFontService', sans-serif"
         font-weight="400"
         font-size="13px"
         transform="translate(761,321)"
         id="text3">ğ‘</text><text
         font-family="'Cambria Math', 'Cambria Math_MSFontService', sans-serif"
         font-weight="400"
         font-size="9px"
         transform="translate(769.16,323)"
         id="text4">P</text><text
         font-family="'Cambria Math', 'Cambria Math_MSFontService', sans-serif"
         font-weight="400"
         font-size="13px"
         transform="translate(725.309,293)"
         id="text5">ğ‘¦</text><text
         font-family="'Cambria Math', 'Cambria Math_MSFontService', sans-serif"
         font-weight="400"
         font-size="13px"
         transform="translate(736.742,293)"
         id="text6">=</text><text
         font-family="'Cambria Math', 'Cambria Math_MSFontService', sans-serif"
         font-weight="400"
         font-size="13px"
         transform="translate(750.449,293)"
         id="text7">1</text><text
         font-family="Calibri, Calibri_MSFontService, sans-serif"
         font-weight="400"
         font-size="13px"
         transform="translate(757.782,293)"
         id="text8">,</text><text
         font-family="'Cambria Math', 'Cambria Math_MSFontService', sans-serif"
         font-weight="400"
         font-size="13px"
         transform="translate(761.115,293)"
         id="text9">ğ‘¦</text><path
         d="M 3.1167,-9.15332 5.2749,-7.15381 4.93213,-6.79199 2.69141,-8.33447 H 2.62158 L 0.342773,-6.79199 0,-7.15381 2.26611,-9.15332 Z"
         fill="#836967"
         transform="translate(762.862,293)"
         id="path9" /><text
         fill="#000000"
         fill-opacity="0"
         font-family="Arial, Arial_MSFontService, sans-serif"
         font-size="2.36133px"
         y="-7.0871601"
         id="text10">à·œ</text><text
         font-family="'Cambria Math', 'Cambria Math_MSFontService', sans-serif"
         font-weight="400"
         font-size="13px"
         transform="translate(772.549,293)"
         id="text11">=</text><text
         font-family="'Cambria Math', 'Cambria Math_MSFontService', sans-serif"
         font-weight="400"
         font-size="13px"
         transform="translate(786.255,293)"
         id="text12">0</text><text
         font-family="'Cambria Math', 'Cambria Math_MSFontService', sans-serif"
         font-weight="400"
         font-size="13px"
         transform="translate(755.667,187)"
         id="text13">ğ‘</text><text
         font-family="'Cambria Math', 'Cambria Math_MSFontService', sans-serif"
         font-weight="400"
         font-size="9px"
         transform="translate(763.827,189)"
         id="text14">D</text><path
         d="m 852.007,229.725 -0.508,-3.354 0.113,0.385 -1.48,-3.328 0.158,0.274 -2.387,-3.275 0.157,0.183 -3.23,-3.197 0.139,0.122 -4.008,-3.092 0.119,0.083 -4.72,-2.96 0.102,0.059 -5.369,-2.803 0.09,0.043 -5.952,-2.619 0.081,0.033 -6.471,-2.41 0.074,0.026 -6.924,-2.173 0.07,0.02 -7.313,-1.911 0.067,0.016 -7.637,-1.622 0.1,0.017 -15.988,-2.273 0.102,0.011 -8.22,-0.599 0.071,0.003 -8.285,-0.205 h 0.075 l -8.286,0.208 0.073,-0.004 -8.221,0.607 0.104,-0.011 -15.988,2.304 0.101,-0.019 -7.637,1.644 0.068,-0.016 -7.313,1.936 0.071,-0.021 -6.925,2.202 0.075,-0.026 -6.471,2.441 0.082,-0.033 -5.953,2.653 0.091,-0.044 -5.369,2.84 0.103,-0.06 -4.721,3 0.119,-0.084 -4.007,3.132 0.138,-0.123 -3.23,3.239 0.245,-0.324 -1.728,3.071 -2.615,-1.472 1.829,-3.249 3.44,-3.449 4.139,-3.234 4.832,-3.071 5.467,-2.891 6.038,-2.692 6.549,-2.471 6.997,-2.225 7.383,-1.954 7.723,-1.662 16.09,-2.319 8.309,-0.613 8.36,-0.21 8.359,0.207 8.308,0.605 16.089,2.289 7.721,1.64 7.382,1.928 6.997,2.196 6.549,2.439 6.038,2.657 5.465,2.853 4.833,3.03 4.138,3.193 3.382,3.346 2.552,3.502 1.627,3.658 0.538,3.554 z m -168.121,-6.586 -7.386,6.833 -1.035,-10.009 z"
         fill="#4472c4"
         id="path14" /><path
         d="m 697.5,249 h 123.359 v 3 H 697.5 Z m 121.859,-3 9,4.5 -9,4.5 z"
         id="path15" /><text
         font-family="'Cambria Math', 'Cambria Math_MSFontService', sans-serif"
         font-weight="400"
         font-size="13px"
         transform="translate(725.975,214)"
         id="text15">ğ‘¦</text><text
         font-family="'Cambria Math', 'Cambria Math_MSFontService', sans-serif"
         font-weight="400"
         font-size="13px"
         transform="translate(737.409,214)"
         id="text16">=</text><text
         font-family="'Cambria Math', 'Cambria Math_MSFontService', sans-serif"
         font-weight="400"
         font-size="13px"
         transform="translate(751.115,214)"
         id="text17">0</text><text
         font-family="Calibri, Calibri_MSFontService, sans-serif"
         font-weight="400"
         font-size="13px"
         transform="translate(758.449,214)"
         id="text18">, </text><text
         font-family="'Cambria Math', 'Cambria Math_MSFontService', sans-serif"
         font-weight="400"
         font-size="13px"
         transform="translate(764.782,214)"
         id="text19">ğ‘¦</text><path
         d="M 3.1167,-9.15332 5.2749,-7.15381 4.93213,-6.79199 2.69141,-8.33447 H 2.62158 L 0.342773,-6.79199 0,-7.15381 2.26611,-9.15332 Z"
         fill="#836967"
         transform="translate(766.529,214)"
         id="path19" /><text
         fill="#000000"
         fill-opacity="0"
         font-family="Arial, Arial_MSFontService, sans-serif"
         font-size="2.36133px"
         y="-7.0871601"
         id="text20">à·œ</text><text
         font-family="'Cambria Math', 'Cambria Math_MSFontService', sans-serif"
         font-weight="400"
         font-size="13px"
         transform="translate(776.215,214)"
         id="text21">=</text><text
         font-family="'Cambria Math', 'Cambria Math_MSFontService', sans-serif"
         font-weight="400"
         font-size="13px"
         transform="translate(789.922,214)"
         id="text22">1</text><text
         font-family="'Cambria Math', 'Cambria Math_MSFontService', sans-serif"
         font-weight="400"
         font-size="14px"
         transform="translate(754.718,264)"
         id="text23">ğ‘¦</text><path
         d="M 3.35645,-9.85742 5.68066,-7.7041 5.31152,-7.31445 2.89844,-8.97559 H 2.82324 L 0.369141,-7.31445 0,-7.7041 2.44043,-9.85742 Z"
         fill="#836967"
         transform="translate(756.552,264)"
         id="path23" /><text
         fill="#000000"
         fill-opacity="0"
         font-family="Arial, Arial_MSFontService, sans-serif"
         font-size="2.54297px"
         y="-7.6323199"
         id="text24">à·œ</text><text
         font-family="'Cambria Math', 'Cambria Math_MSFontService', sans-serif"
         font-weight="400"
         font-size="13px"
         transform="translate(847.684,185)"
         id="text25">ğ‘¦</text><path
         d="M 1.49975,-0.0273501 2.02967,29.0308 -0.969834,29.0854 -1.49975,0.0273501 Z M 5.00182,27.4763 0.666667,36.5569 -3.99669,27.6404 Z"
         transform="matrix(-1,0,0,1,852.167,193.5)"
         id="path25" /><text
         font-family="Calibri, Calibri_MSFontService, sans-serif"
         font-weight="700"
         font-size="16px"
         transform="translate(707.895,164)"
         id="text26">Critic supervisor</text></g><g
       transform="matrix(0.26458333,0,0,0.26458333,-53.789141,39.851318)"
       id="g9"><path
         d="m 232,248.5 c 0,-11.322 10.297,-20.5 23,-20.5 12.703,0 23,9.178 23,20.5 0,11.322 -10.297,20.5 -23,20.5 -12.703,0 -23,-9.178 -23,-20.5 z"
         stroke="#000000"
         stroke-width="2"
         stroke-miterlimit="8"
         fill="#ffffff"
         fill-rule="evenodd"
         id="path1-3" /><text
         font-family="Calibri, Calibri_MSFontService, sans-serif"
         font-weight="700"
         font-size="13px"
         transform="translate(251.128,252)"
         id="text1-4">C</text><path
         d="m 409,248.5 c 0,-11.322 10.297,-20.5 23,-20.5 12.703,0 23,9.178 23,20.5 0,11.322 -10.297,20.5 -23,20.5 -12.703,0 -23,-9.178 -23,-20.5 z"
         stroke="#000000"
         stroke-width="2"
         stroke-miterlimit="8"
         fill="#ffffff"
         fill-rule="evenodd"
         id="path2-8" /><text
         font-family="Calibri, Calibri_MSFontService, sans-serif"
         font-weight="700"
         font-size="13px"
         transform="translate(428.451,252)"
         id="text2-7">S</text><path
         d="m 433.899,269.015 -0.631,1.727 -1.872,1.744 -2.623,1.492 -3.374,1.384 -4.104,1.312 -4.791,1.245 -5.423,1.173 -5.997,1.094 -6.508,1.004 -6.958,0.905 -7.345,0.796 -7.674,0.675 -16.038,0.945 -16.565,0.335 -16.565,-0.324 -16.037,-0.915 -7.673,-0.654 -7.343,-0.77 -6.957,-0.876 -6.508,-0.972 -5.995,-1.059 -5.421,-1.136 -4.789,-1.205 -4.247,-1.314 -1.648,-1.076 1.64,-2.512 1.472,0.961 -0.376,-0.177 4.007,1.241 -0.077,-0.022 4.721,1.188 -0.059,-0.014 5.369,1.125 -0.047,-0.009 5.953,1.051 -0.04,-0.007 6.471,0.967 -0.034,-0.004 6.924,0.872 -0.031,-0.004 7.314,0.767 -0.029,-0.003 7.637,0.651 -0.042,-0.003 15.988,0.912 -0.056,-0.002 16.506,0.323 h -0.059 l 16.506,-0.333 -0.058,0.002 15.988,-0.942 -0.043,0.003 7.637,-0.673 -0.03,0.003 7.314,-0.792 -0.032,0.004 6.924,-0.901 -0.035,0.006 6.471,-0.999 -0.041,0.007 5.952,-1.086 -0.048,0.01 5.369,-1.162 -0.06,0.015 4.721,-1.227 -0.079,0.023 4.007,-1.282 -0.112,0.041 3.23,-1.324 -0.172,0.083 2.387,-1.357 -0.281,0.207 1.48,-1.379 -0.387,0.582 0.508,-1.39 z m -173.629,8.817 -4.77,-8.86 9.95,1.501 z"
         fill="#ff0000"
         id="path3-5" /><text
         font-family="'Cambria Math', 'Cambria Math_MSFontService', sans-serif"
         font-weight="400"
         font-size="13px"
         transform="translate(341.667,298)"
         id="text3-3">ğ‘</text><text
         font-family="'Cambria Math', 'Cambria Math_MSFontService', sans-serif"
         font-weight="400"
         font-size="9px"
         transform="translate(349.827,300)"
         id="text4-7">P</text><text
         font-family="'Cambria Math', 'Cambria Math_MSFontService', sans-serif"
         font-weight="400"
         font-size="13px"
         transform="translate(329.736,273)"
         id="text5-0">ğ‘¦</text><text
         font-family="'Cambria Math', 'Cambria Math_MSFontService', sans-serif"
         font-weight="400"
         font-size="13px"
         transform="translate(341.169,273)"
         id="text6-4">=</text><text
         font-family="'Cambria Math', 'Cambria Math_MSFontService', sans-serif"
         font-weight="400"
         font-size="13px"
         transform="translate(354.876,273)"
         id="text7-6">1</text><text
         font-family="'Cambria Math', 'Cambria Math_MSFontService', sans-serif"
         font-weight="400"
         font-size="13px"
         transform="translate(427.684,183)"
         id="text8-3">ğ‘¦</text><path
         d="m 434,191.5 v 29.724 h -3 V 191.5 Z m 3,28.224 -4.5,9 -4.5,-9 z"
         id="path8" /><text
         font-family="Calibri, Calibri_MSFontService, sans-serif"
         font-weight="700"
         font-size="16px"
         transform="translate(279.814,160)"
         id="text9-8">Target supervisor</text></g></g></svg>
